<svg width="1178" height="510" fill="none" xmlns="http://www.w3.org/2000/svg"><g opacity=".2" stroke="#F1F6FF" stroke-miterlimit="10" stroke-linecap="round" stroke-linejoin="round"><path d="M682.663 178.693c1.655-.369 2.943-1.661 3.678-3.137 1.104-1.845 1.84-3.69 2.392-5.719.736-2.214 1.103-4.428 1.471-6.642a11.197 11.197 0 000-3.505c-.184-.553-.368-1.291-.735-1.845-.368-.369-.736-.738-1.104-.922-1.104-2.214-3.679-3.506-5.702-4.797-3.495-2.214-6.438-5.166-9.198-8.118-4.414-4.796-9.932-11.254-14.163-16.235-3.311-3.874-6.438-7.933-9.197-12.176-1.288-2.03-2.576-4.243-3.495-6.457-1.104-2.583-2.208-6.089-3.127-8.856-.736-2.214-1.656-4.612-2.943-6.642-1.472-2.398-3.679-4.612-5.703-6.641l-5.886-5.535c-2.759-2.583-5.518-6.088-7.91-9.04-1.655-2.03-3.494-4.059-5.702-5.535-2.207-1.476-4.598-2.583-7.174-3.136-6.07-1.476-12.692-1.476-18.946-.738-3.679.369-7.357 1.291-10.852 2.583-3.863 1.476-7.542 3.505-10.853 5.904-2.943-1.66-6.07-2.952-9.197-3.69-2.024-.37-3.863-.554-5.886-.37-1.104.185-2.024.37-2.944 1.108-.551.369-1.103 1.107-1.287 1.844-.184 1.108-.184 2.214 0 3.137.736 3.505 2.575 6.826 4.047 10.147-3.679 2.952-7.542 5.904-11.773 8.117-4.966 2.583-12.876 4.982-18.21 6.827-15.635 5.534-39.18 15.128-54.999 19.925-2.576.738-5.151 1.476-7.726 1.845s-5.15.553-7.726.369c-10.668-.554-24.832-2.583-35.317-2.952-7.174-.369-14.531-.369-21.705.369-8.462.738-22.257 3.32-30.903 4.796-7.725 1.292-15.819 2.399-23.545 2.952-8.093.554-16.922.923-25.016.923h-13.612l-138.325-3.506c-9.014-.369-29.247-1.107-38.261-1.66-3.678-.185-7.725-.184-11.22-.184-3.863.184-7.91.553-11.773 1.291-9.932 2.029-19.314 7.38-26.487 14.39-5.15 4.981-9.566 11.07-12.877 17.527-3.862 7.564-6.621 15.866-7.91 24.353-.55 4.243-.919 8.671-.919 12.914v7.38c.736 20.663.736 48.705 2.208 68.999.92 15.682 3.127 34.685.735 50.366-.552 3.137-1.103 6.457-2.023 9.594-.92 3.505-2.391 6.826-3.679 10.147-1.104 2.767-3.679 7.933-4.415 10.7-.183.369-.183.923-.183 1.292l.183.184c.368.185.736 0 1.104 0 .368 0 .736 0 .92.185 0 .369 0 .922-.184 1.291-.368 2.029-2.208 6.642-2.943 8.671-1.288 3.69-2.391 7.564-2.943 11.254-.368 3.321-.184 6.826.367 10.147.368 1.66.736 3.321 1.656 4.981.368.554.736 1.292 1.288 1.661.367.184.735 0 1.287-.185.184 0 .552-.184.736 0 .368.554.552 1.292.736 1.845 1.287 5.35 1.471 11.439 3.495 16.604.552 1.107 1.103 2.399 1.84 3.321.183.185.551.554.919.738.184-.369.368-.738.368-1.107.552-2.398.736-6.641.92-9.224.183-2.399.551-4.982 1.103-7.196.368-1.844 1.104-3.505 1.84-5.165 1.287-2.952 3.31-6.273 4.414-9.409.736-1.845 1.104-3.875 1.104-5.904.184-6.457-1.288-13.468-1.472-19.74 0-2.03.184-4.244.552-6.273.552-3.137 1.84-7.195 2.575-10.332.736-2.952 1.104-5.903.92-9.04 0-3.874-1.287-11.992-1.84-15.681-.551-5.166-1.103-10.885-1.287-16.051-1.104-21.955-1.104-45.016-.184-66.97.552-13.468 2.391-27.674 4.415-40.957.92 11.254 3.31 22.508 6.99 33.208 2.575 7.749 6.622 16.051 9.197 23.615 1.103 3.321 1.655 6.826 1.84 10.331.183 2.583.183 6.089.551 8.487.368 3.136 1.104 6.273 1.84 9.224 1.471 5.535 4.046 11.623 4.782 17.158.736 5.535-.368 11.07-1.655 16.604-2.208 9.225-4.415 19.003-8.094 27.858-2.023 4.797-5.334 10.147-8.094 14.575a42.629 42.629 0 00-4.782 10.147c-1.104 3.506-1.656 7.38-1.104 11.07.368 2.398 1.288 6.272 1.84 8.855.552 2.214.92 4.612 1.287 7.011 1.472 12.545-.551 25.275-3.495 37.267l-6.254 24.722c-.551 2.214-1.103 4.612-.92 7.01.185 1.292.552 2.583 1.104 3.69.552 1.107 1.288 2.03 2.392 2.768.551.553 1.471.738 2.207.922 1.103.185 2.207.185 3.31.554 1.288.553 2.024 1.66 2.576 2.767 3.127 5.719 4.047 13.468 6.438 19.556.552 1.291 1.288 2.767 2.76 3.505.735.369 1.655.369 2.39.369h23.361c.736 0 1.472 0 2.208-.184.735-.185 1.471-.369 2.207-.738.736-.554 1.288-1.476 1.472-2.583.367-1.292.367-2.767.184-4.059-.184-1.291-.368-2.767-1.104-3.874a13.91 13.91 0 00-2.024-2.583c-1.471-1.476-3.862-2.952-5.702-4.243-2.023-1.476-4.23-3.137-6.07-4.797-1.472-1.476-2.943-2.952-4.047-4.797-1.287-2.214-2.391-4.612-3.127-7.011-.735-2.582-1.287-5.35-1.471-7.933-.552-5.35-.736-11.438-.92-16.788 0-9.963.184-20.11 2.943-29.703 2.207-8.118 6.622-17.527 10.117-25.276 2.023-4.427 4.231-9.778 6.622-14.021 1.655-2.952 3.495-5.719 5.886-8.117 3.127-3.506 6.806-6.458 10.485-9.225 1.839 1.845 4.047 3.874 6.254 5.166 2.391 1.66 5.886 3.505 8.278 5.165 1.471.923 2.759 2.03 3.494 3.69.184.554.368 1.292.552 1.845.552 3.321.552 7.38 1.472 10.701.368 1.476.92 3.136 2.023 4.427.736.738 2.024 1.292 2.943.738.736-.369 1.288-1.291 1.472-2.029 1.104-2.952 1.287-6.457 2.207-9.593.184-.738.368-1.292.92-1.845.184-.369.552-.738 1.104-.923.551-.184 1.103-.369 1.655-.369.736 0 1.472 0 2.207.185 1.656.184 3.679.553 5.335.738 1.655.184 3.311 0 4.966-.185 1.472-.184 3.863-.553 5.335-.369.367 0 .735 0 .919.185.184 0 .552.184.736.369.184.184.368.553.552.922.184.554.368.923.552 1.476.736 3.136 1.471 6.826 2.759 9.593.552.923 1.104 2.03 2.207 2.583.368.185.92.185 1.288 0 .92-.369 1.287-1.107 1.655-2.029 1.472-3.321 1.656-7.38 2.576-10.7.367-.923.551-1.845 1.103-2.768a4.352 4.352 0 011.656-1.476c.368-.184.735-.369.919-.553l5.151-2.583c6.99-3.69 13.06-9.04 18.578-14.575 1.84-1.845 3.863-3.874 5.518-5.904 1.104-1.107 2.208-2.951 3.311-4.058.92-.923 1.84-1.661 3.311-2.03.92-.184 1.84-.184 2.943 0 1.656.185 3.128.554 4.783 1.107 9.933 3.136 20.418 8.487 30.351 11.439 4.046 1.291 8.277 2.213 12.508 2.213 6.07.185 11.956-1.66 17.659-3.874 6.254 0 12.692-.553 18.946-1.66 10.484-1.661 29.431-6.642 39.916-9.225 8.277-1.845 16.738-3.874 25.2-4.243 4.414-.185 8.829 0 13.06.553 6.806.738 15.451 2.952 22.257 4.244-.736 10.147-2.207 20.847-1.288 30.994.184 2.03.552 4.059.92 5.904.368 2.214 1.84 7.379 2.391 9.593.368 1.661.92 3.506 1.104 5.351.184 1.66.184 3.32.368 4.796 0 3.137-.184 6.642.368 9.778.368 2.214 1.287 5.166 1.655 7.38.368 2.398.736 4.797.92 7.195.552 13.468-.552 27.12-2.759 40.404-.736 4.243-2.024 10.516-2.943 14.759-.184.738-.184 1.291-.184 2.029 0 1.107.184 2.399.736 3.321.367.554.735.923 1.103 1.292s.736.922 1.288 1.107c.736.369 1.471.553 2.391.553 1.656 0 3.495-.738 5.151-1.107.367 0 .551-.184.919-.184s.552 0 .92.184c.368.185.552.369.92.738.735.922.919 2.214 1.471 3.321 1.104 2.952 2.024 6.826 3.679 9.593.368.554.736 1.292 1.288 1.845.368.369.735.554 1.287.738.736.185 1.472.369 2.208.369h24.648c.368 0 .552 0 .92-.184.368-.185.552-.554.736-.923.367-.922.551-2.029.735-2.952.184-1.66.184-3.505 0-5.165-.184-.923-.368-1.845-.919-2.768-.552-1.107-1.288-2.029-2.024-2.767-2.575-2.583-5.702-4.981-8.829-7.011-1.656-1.107-4.415-2.767-5.886-3.874-1.288-.922-2.392-2.029-3.127-3.321-.736-1.291-1.104-2.583-1.472-3.874-1.287-5.35-1.839-11.254-2.207-16.604-.736-9.594-1.104-19.372-.552-28.965.368-5.166.736-10.516 2.207-15.498.736-2.582 2.024-5.534 2.759-7.933.92-2.398 1.472-4.981 2.024-7.564 1.104-5.904 2.391-16.051 3.679-21.77 1.655-7.564 3.679-15.497 6.622-22.692 4.046-.185 8.277-.554 12.14-2.03 2.759-1.106 5.334-2.951 7.542-5.165 2.575-2.583 5.518-7.195 7.725-10.332a45.691 45.691 0 013.863-4.981c1.288-1.476 3.679-3.69 4.967-4.981 2.575-2.583 4.966-5.35 6.806-8.487 3.127-5.35 5.15-11.254 7.173-17.157 1.656-5.166 5.887-19.003 7.91-23.984.552-1.476 1.288-2.952 1.839-4.244 1.656-3.32 4.599-6.272 6.99-9.04 2.575-3.136 5.518-7.01 8.094-10.331 4.598-6.273 28.511-38.928 32.374-44.647 2.943-4.428 5.886-9.04 8.277-13.837 4.599 1.107 9.381 1.661 13.98 2.03 5.518.369 14.348.184 20.05.184 3.495 0 7.358.185 10.852.369 9.933.923 20.234 3.321 29.799 6.088 2.943.738 5.887 1.476 8.83.923 2.759-.554 5.334-2.03 7.541-3.875 2.76.185 5.519.185 8.278-.553 1.287-.184 2.391-.553 3.495-1.291 2.023-.369 2.943-.923 3.679-1.845z" stroke-width="3"/><path d="M257.79 125.679c2.207 4.797 4.967 9.962 10.117 12.361 3.127 1.291 6.622 1.476 10.117 1.291 4.414-.184 9.933-.553 14.347.185 2.76.369 5.519 1.291 8.094 2.582 6.438 3.321 11.588 8.856 14.532 15.498 1.103 2.398 1.839 4.981 1.839 7.564.184 1.66 0 3.505-.736 4.981-1.103 2.767-3.311 4.981-6.07 6.273-1.472.738-3.311 1.107-4.966 1.291-2.392.369-5.151.554-7.542 1.476-1.288.554-2.391 1.107-3.495 2.029-1.288 1.292-2.391 2.768-3.311 4.244-1.288 2.398-2.207 4.981-2.943 7.748-.552 2.214-.92 4.613-.92 7.011 0 1.66.184 3.321.552 4.797.552 2.583 2.207 4.981 3.495 7.379.92 1.476 1.655 3.137 1.839 4.982.184.922.184 1.845 0 2.952-.184 2.582-.919 6.088-1.471 8.671-.552 3.505-1.288 7.379.368 10.7a9.426 9.426 0 004.23 4.243c1.656.923 3.495 1.107 5.335 1.107 1.839-.184 3.495-.922 5.15-1.66 3.127-1.476 6.254-3.874 9.381-5.166.92-.369 2.024-.553 2.943-.184a2.857 2.857 0 011.472 1.107c.552.922.92 2.029 1.104 2.951.184 1.661-.184 3.321-.92 4.797-.736 1.292-1.656 2.399-2.575 3.506-1.472 1.66-3.311 2.951-5.151 4.243-6.07 4.428-13.06 9.04-18.026 14.944-1.288 1.66-2.575 3.505-3.127 5.719-.184 1.107-.184 2.214.184 3.136.368 1.107.919 2.03 1.655 2.768 1.288 1.291 2.759 2.029 4.415 2.582 2.575.923 5.518 1.107 8.277.554 1.656-.369 3.127-.738 4.415-1.661 2.391-1.291 4.231-3.136 6.07-5.165 2.759-3.137 5.518-7.38 8.094-10.701 1.839-2.398 4.414-4.797 6.07-7.195.919-1.291 1.655-2.767 2.207-4.243 2.023-5.535 3.127-11.808 6.254-16.789.552-.922 1.472-1.845 2.207-2.583 1.104-.922 2.392-1.66 3.863-1.845.736-.184 1.472-.184 2.208.185.551.184 1.103.738 1.287 1.291.184.554.368 1.107.368 1.661 0 .738 0 1.476-.184 2.029-.368 2.03-1.104 4.797-1.471 6.826-.368 1.845-.92 3.875-.736 5.904 0 .922.184 1.845.552 2.583.919 1.66 2.759 2.767 4.414 3.505 1.84.923 4.047 1.845 5.703 2.952 2.391 1.845 3.494 5.166 4.598 7.749.736 1.66 1.656 3.505 3.311 4.612 1.104.738 2.391.922 3.679.922 1.839 0 3.679-.553 5.334-1.476 3.495-1.844 5.703-5.35 6.622-9.04.92-3.32.92-7.01-.551-10.147-.92-2.213-2.392-4.243-3.311-6.641-.368-1.107-.552-2.399-.184-3.69.367-1.292.919-2.398 1.471-3.69 1.656-2.952 4.231-6.273 5.886-9.224.736-1.292 1.288-2.768 1.472-4.244.368-3.69-2.024-6.826-3.679-9.962-.736-1.476-1.655-3.137-1.839-4.797-.736-5.35 2.943-10.331 5.334-14.759 1.471-2.583 2.759-5.351 3.311-8.302.552-2.583.736-5.166.736-7.933 0-2.952-.368-5.904-1.104-8.856-.736-2.952-2.023-6.088-3.863-8.487-3.127-3.874-7.909-6.272-12.14-9.04-1.288-.922-2.759-1.845-4.047-2.952-1.287-1.106-2.391-2.398-3.495-3.689-2.207-2.768-3.863-6.089-4.966-9.409-1.472-4.428-2.208-9.225-2.024-14.022M54.532 229.732c.552 1.844 1.472 3.689 2.575 5.35.736.922 1.472 1.66 2.576 2.029a4.46 4.46 0 002.207 0c1.288-.369 2.575-1.291 3.679-2.029m20.969 11.438c2.391-2.214 5.15-4.612 8.278-5.719a18.089 18.089 0 014.414-.553c2.943 0 6.07.184 8.829-.738 2.392-.738 4.231-2.583 5.703-4.428 2.943-3.874 4.782-8.671 5.886-13.284.552-2.398 1.104-5.903 1.839-8.486.368-1.107.736-2.398 1.472-3.505 1.839-3.137 6.07-3.506 9.381-2.768 2.207.369 4.231 1.292 6.254 2.214 2.391 1.107 4.967 2.767 7.542 3.321 1.104.184 2.207.369 3.311.184 1.471-.184 2.943-.922 4.047-1.844 1.655-1.292 2.943-3.137 3.678-5.166.368-1.476.552-2.952.552-4.612-.368-6.458-3.495-13.284-3.311-19.926 0-2.398.552-4.796 1.472-7.195 1.287-3.505 3.679-7.01 4.782-10.516.368-1.291.736-2.767.552-4.243-.184-1.107-.552-2.398-1.287-3.321-1.84-2.767-4.967-5.35-7.542-7.748-1.656-1.661-3.495-3.321-4.599-5.535-1.287-2.398-1.655-5.35-2.759-7.933-.92-2.03-2.023-3.875-3.311-5.719a56.995 56.995 0 00-6.07-7.196m285.849-3.689c-1.656 1.845-3.127 3.874-4.231 6.088-.736 1.476-1.287 3.136-1.471 4.981-.184 2.583.552 5.166.919 7.749.184 1.66.184 3.321-.551 4.796-.552 1.476-1.472 2.583-2.392 3.875-2.023 2.583-4.598 5.166-5.702 8.486-1.104 3.506 0 7.564 2.391 10.332 1.84 2.029 4.415 3.136 6.99 3.874 4.047 1.292 8.829 2.399 11.957 5.535 2.575 2.583 4.414 6.088 5.15 9.593.552 2.952.552 6.273-.92 9.04-1.287 2.214-3.495 3.506-5.518 4.797l-3.679 2.03c-2.391 1.476-4.782 2.951-6.438 5.35-1.472 2.029-2.391 4.428-2.759 6.826-.552 2.767-.368 5.535.184 8.118.368 1.66 1.287 3.32 2.207 4.796 1.84 2.583 4.599 4.797 6.438 7.564.736.923 1.288 2.03 1.656 3.137.368 1.107.552 2.398.735 3.505.368 3.874-.367 7.749-1.103 11.439-2.024 8.486-5.519 16.973-9.013 24.721-.736 2.03-1.656 4.059-1.656 6.089-.184 2.582.552 5.165 1.656 7.379 1.103 2.214 2.575 4.243 4.782 5.35 1.472.738 3.495 1.107 5.15 1.476 1.104.185 2.208.554 3.128 1.292.551.369.919.922 1.287 1.476.736 1.107 1.656 3.321 2.207 4.612.736 1.476 1.472 2.952 2.576 4.059.735.738 1.839 1.291 2.759 1.66 1.655.554 3.495.554 5.334.185 1.84-.369 3.495-1.107 4.967-2.399 1.471-1.476 2.391-3.505 2.759-5.534 1.104-4.797.92-10.516 2.943-15.129 1.104-2.398 2.575-4.427 4.231-6.272 2.023-2.399 4.598-4.982 6.254-7.749.735-1.107 1.103-2.398 1.471-3.69.552-2.214.92-4.797 1.656-6.826.368-1.291 1.103-2.398 2.207-3.321.92-.738 2.023-.922 3.127-1.107 1.472-.184 3.127.185 4.599.923a5.822 5.822 0 012.575 2.583c.368.922.552 1.845.736 2.951.184 3.321-.92 6.642-1.84 9.778-1.287 4.059-3.495 10.147-3.863 14.391 0 1.107-.183 2.214.184 3.321.184.738.736 1.291 1.288 1.844.736.554 1.472.923 2.391 1.107 1.656.369 3.495.185 5.151-.184 2.575-.554 4.966-1.66 6.99-3.321 2.759-2.214 4.598-5.166 6.07-8.302 2.023-4.428 3.127-9.04 4.23-13.837 1.656-8.117 3.311-18.818 5.151-26.751.92-4.243 2.207-8.302 3.863-12.361 1.655-3.505 3.679-7.195 6.99-9.409 1.655-1.107 3.494-1.66 5.334-2.029 2.207-.554 5.15-1.107 7.358-2.03 1.471-.553 2.759-1.291 3.862-2.398 2.392-2.029 4.231-4.797 5.703-7.564 2.391-4.428 4.046-9.409 5.15-14.206.92-3.874 1.288-7.933.92-11.807-.184-2.952-.736-6.089-.736-9.04 0-1.845.368-3.69 1.104-5.535.735-2.03 1.839-4.059 3.311-5.535.919-1.107 2.207-2.029 3.679-2.583 2.391-.922 4.966-.738 7.541-.184 6.254 1.476 12.508 4.796 18.762 6.272 2.208.554 4.415.923 6.622.738 1.656 0 3.311-.553 4.599-1.291 1.84-1.107 3.679-2.767 5.518-3.874 1.104-.738 2.392-1.107 3.679-1.292a8.926 8.926 0 013.127 0c1.84.185 4.415.738 6.438 1.107 1.288.185 2.759.369 4.047.369.736 0 1.656-.184 2.391-.369.736-.369 1.472-.922 2.024-1.66 1.471-1.661 2.391-4.428 3.495-6.457.735-1.476 1.471-2.952 2.759-4.244 1.287-1.291 2.759-2.214 4.231-2.952 2.759-1.476 6.254-2.767 7.541-5.719.552-1.291.92-2.767.736-4.243 0-1.661-.368-3.136-1.104-4.612-.552-1.107-1.103-2.03-2.023-2.768-1.104-1.107-2.391-1.845-3.863-2.583-2.759-1.291-5.886-2.398-7.542-4.981-1.655-2.398-2.575-5.719-3.862-8.486-.736-1.661-1.656-3.137-2.943-4.244-2.944-3.136-7.358-5.166-10.485-8.117-.92-.923-1.84-2.03-2.392-3.137-1.471-3.136-1.471-7.01-2.207-10.331-.368-1.476-.736-2.767-1.471-4.059a15.878 15.878 0 00-3.679-4.797c-2.024-2.03-4.415-3.69-6.806-5.165-2.575-1.476-5.335-2.768-8.094-3.69" stroke-width="1.5"/><path d="M682.516 178.812c-.736.738-1.656 1.476-2.759 2.029-1.104.554-2.391.923-3.495 1.292-2.759.553-5.518.553-8.278.553M567.551 71.807c3.495-2.398 7.174-4.612 11.22-6.088 3.679-1.291 7.542-2.214 11.405-2.583 6.07-.553 12.324-.553 18.21.923 2.576.738 5.151 1.66 7.542 3.32 2.023 1.477 3.863 3.506 5.334 5.35 1.104 1.477 3.495 4.429 4.783 5.905.92 1.106 2.023 2.213 3.127 3.32l5.886 5.535c2.024 2.03 4.047 4.243 5.702 6.642 1.288 2.03 2.208 4.243 2.943 6.641.92 2.768 1.84 6.273 3.128 8.856.919 2.214 2.207 4.428 3.494 6.457 2.76 4.244 6.071 8.302 9.198 12.177 4.23 4.981 9.749 11.438 14.163 16.235 2.759 2.952 5.886 5.904 9.197 8.117 2.024 1.292 4.599 2.583 5.703 4.797m-19.865 7.38c.368-1.107.736-2.399 1.471-3.321.368-.554.92-1.107 1.656-1.291.919-.369 2.023-.369 3.127-.369 1.471.184 2.943.369 4.231 1.106.735.369 1.287.738 1.655 1.292.184.369.368.738.368 1.291 0 .923-.368 1.845-.552 2.583v.185" stroke-width="2.25"/><path d="M673.686 178.074c-.368 0-2.943-.369-3.311-.369-1.839-.184-3.495-.553-4.966-1.66-.92-.738-1.84-1.661-2.391-2.768a12.005 12.005 0 01-1.472-5.719 12.988 12.988 0 011.104-6.457c.551-1.291 1.287-2.767 2.391-3.69 2.023-1.66 4.782-1.476 7.358-1.291 1.839.184 4.414.738 6.254.738 1.655 0 4.414 0 6.07-.185.92 0 1.839 0 2.759.185.552 0 .92.184 1.472.553.551.369.919 1.107 1.287 1.661.184.738.184 1.291.184 2.029 0 1.107-.184 2.214-.184 3.321-.552 3.505-1.471 7.01-3.127 10.331-.736 1.476-1.655 2.768-3.127 3.506-.736.369-1.655.553-2.575.738-2.575.184-5.334-.554-7.726-.923zM91.873 142.283c-5.518 5.719-10.853 11.807-14.9 18.634-3.126 5.165-5.334 10.7-6.437 16.604-.92 4.796-.736 9.593-.184 14.39.736 6.273 1.84 12.914 3.31 19.003 1.288 4.981 2.76 10.147 4.6 14.943 1.839 5.166 5.15 12.546 7.173 17.711.736 2.03 1.472 4.244 2.023 6.273.368 2.029.736 4.243.736 6.457.184 2.583.184 6.088.552 8.487.368 3.136 1.104 6.273 1.84 9.224 1.471 5.535 4.046 11.623 4.782 17.158.736 5.535-.368 11.07-1.655 16.604-2.208 9.225-4.415 19.003-8.094 27.858-2.023 4.797-5.334 10.147-8.094 14.575a42.582 42.582 0 00-4.782 10.147c-1.104 3.505-1.655 7.38-1.104 11.07.368 2.398 1.288 6.272 1.84 8.855.552 2.214.92 4.612 1.287 7.011 1.472 12.545-.552 25.275-3.495 37.267l-6.254 24.722c-.551 2.214-1.103 4.612-.92 7.01.184 1.292.552 2.583 1.104 3.69.552 1.107 1.288 2.03 2.392 2.768.551.369 1.287.738 2.023.922 1.104.184 2.207.184 3.31.553 1.105.554 1.84 1.476 2.576 2.583 3.127 5.72 4.23 13.653 6.622 19.741.552 1.291 1.288 2.767 2.76 3.505.735.369 1.655.369 2.39.369 3.863 0 21.522.185 25.017-.184.736 0 1.471-.185 2.207-.554a3.614 3.614 0 001.656-1.66c.551-1.107.735-2.583.735-3.69 0-1.845-.367-3.69-1.103-5.35-.736-1.476-1.84-2.583-2.943-3.506-1.288-1.107-3.863-2.767-5.335-3.689-2.759-2.03-5.518-4.059-7.725-6.642-1.288-1.661-2.392-3.505-3.311-5.35-.736-1.661-1.472-3.506-1.84-5.351-.552-1.844-.736-3.874-1.103-5.719-.92-8.302-1.104-16.973-.92-25.091.184-6.272.552-12.545 1.84-18.818 1.47-6.457 4.046-12.729 6.437-18.818 2.024-4.612 5.703-13.098 7.726-17.711 1.655-3.505 3.495-7.01 5.702-10.331 3.127-4.613 7.358-8.487 11.773-11.808 7.541-5.719 16.371-11.623 23.177-18.08 9.932-9.04 17.658-20.294 24.464-31.917 5.15-9.04 9.933-18.264 13.428-28.042 3.863-10.701 6.254-21.955 7.726-33.209" stroke-width="2.25"/><path d="M128.478 344.3c1.839 1.845 4.046 3.875 6.254 5.166 2.391 1.661 5.886 3.505 8.277 5.166 1.472.922 2.759 2.029 3.495 3.69.184.553.368 1.291.552 1.845.552 3.32.552 7.379 1.471 10.7.368 1.476.92 3.136 2.024 4.428.736.738 2.023 1.291 2.943.738.736-.369 1.287-1.292 1.471-2.03 1.104-2.951 1.288-6.457 2.208-9.593.184-.738.368-1.292.919-1.845.184-.369.552-.738 1.104-.922.552-.185 1.104-.369 1.656-.369.735 0 1.471 0 2.207.184 1.655.185 3.679.554 5.334.738 1.656.185 3.311 0 4.967-.184 1.471-.185 3.863-.554 5.334-.369.368 0 .736 0 .92.184.184 0 .552.185.736.369.184.185.368.554.551.922.184.554.368.923.552 1.476.736 3.137 1.472 6.827 2.759 9.594.552.922 1.104 2.029 2.208 2.583.368.184.92.184 1.287 0 .92-.369 1.288-1.107 1.656-2.03 1.471-3.32 1.655-7.379 2.575-10.7.368-.923.552-1.845 1.104-2.767a4.34 4.34 0 011.655-1.476c.368-.185.736-.369.92-.554l5.15-2.583c6.99-3.69 13.06-9.04 18.579-14.574 1.839-1.845 3.863-3.875 5.518-5.904 1.104-1.107 2.207-2.952 3.311-4.059.92-.922 1.839-1.66 3.311-2.029.92-.185 1.839-.185 2.943 0 1.656.184 3.127.553 4.783 1.107 9.933 3.136 20.417 8.486 30.35 11.438 4.047 1.291 8.278 2.214 12.509 2.214 6.07.184 11.956-1.661 17.658-3.874M79.549 476.949c9.749.185 19.682-1.291 28.695-4.981M552.1 161.285c1.471 1.845 2.759 3.875 4.414 5.72a36.86 36.86 0 004.047 3.505c2.759 1.845 6.07 3.321 9.197 4.428 4.967 1.66 10.301 2.767 15.451 3.505 11.221 1.661 23.545.185 34.766.923 10.669.738 21.337 3.32 31.638 6.272 2.943.738 5.886 1.476 8.829.923 2.76-.554 5.335-2.03 7.542-3.875m-259.36 84.128c-1.103 9.04-1.839 18.449-.919 27.489.368 4.244 1.103 8.302 2.759 12.361.92 2.214 2.023 4.428 3.495 6.273a117.669 117.669 0 013.495 4.981c.735 1.107 1.287 2.399 1.655 3.69.552 2.398.368 5.166.368 7.564-.736 10.147-2.207 21.217-1.288 31.364.184 2.029.368 4.058.736 6.088.552 2.767 1.84 7.564 2.575 10.147.368 1.66.92 3.505 1.104 5.35.184 1.66.184 3.321.368 4.797 0 3.321-.184 7.01.552 10.147.736 3.136 1.655 6.457 2.023 9.778.552 4.428.552 8.855.552 13.283-.184 12.177-1.471 24.537-3.863 36.529-.368 2.399-1.839 8.302-2.023 10.516 0 .738-.184 1.476-.184 2.03 0 .738.184 1.66.736 2.398.184.554.552.923.919 1.292l1.104 1.106c.368.369.92.554 1.288.738a2.537 2.537 0 001.655 0c1.472-.184 3.311-.738 4.783-1.107.184 0 .552-.184.735-.184.368 0 .92 0 1.288.369s.736.738.92 1.291c.368.738.552 1.476.92 2.214.919 2.952 2.023 6.457 3.311 9.225.551 1.107 1.287 2.583 2.575 3.136.736.369 1.839.369 2.575.554h24.648c.368 0 .552 0 .92-.185.368-.184.552-.553.736-.922.368-.923.552-2.03.736-2.952a24.243 24.243 0 000-5.166c-.184-.922-.368-1.845-.92-2.767-.552-1.107-1.288-2.03-2.023-2.768-2.576-2.582-5.703-4.981-8.83-7.01-1.655-1.107-4.23-2.768-5.702-3.875-1.104-.922-2.391-2.029-3.127-3.32-.92-1.292-1.288-2.952-1.656-4.428-1.287-5.166-1.655-10.885-2.207-16.235-.92-12.546-1.471-25.645.184-38.19.368-2.767 1.104-5.535 1.84-8.302.735-2.214 2.023-4.981 2.575-7.195.919-2.768 1.471-5.535 1.839-8.487 1.104-7.379 2.575-17.711 4.415-24.722 2.023-7.748 4.231-15.681 7.909-22.692 1.104-1.845 2.208-3.874 3.495-5.535 2.208-2.767 5.151-6.088 7.174-9.04 4.415-5.903 7.726-12.545 10.485-19.371" stroke-width="2.25"/><path d="M433.824 477.134c3.863-.554 7.542-1.476 11.221-3.137 3.863-1.66 7.541-4.058 10.669-6.826M176.303 291.905c9.749-1.66 20.05-2.398 29.615.369 4.23 1.291 8.277 3.136 12.14 5.35 9.381 5.535 20.97 15.866 29.615 22.877 5.886 4.797 12.14 9.225 18.946 12.73 4.599 2.214 9.381 4.059 14.348 5.166 12.692 2.952 26.12 2.214 38.996.184 17.658-2.952 38.996-10.147 56.654-12.545 5.519-.738 11.221-.923 16.739-.369 8.094.553 17.659 2.952 25.752 4.612m42.308 5.904c4.047-.185 8.277-.554 12.14-2.03 2.759-1.107 5.335-2.951 7.542-5.165 2.575-2.583 5.518-7.195 7.726-10.332a45.554 45.554 0 013.862-4.981c1.288-1.476 3.679-3.69 4.967-4.981 2.575-2.583 4.966-5.351 6.806-8.487 3.127-5.35 5.15-11.254 7.174-17.158 1.655-5.165 5.886-19.002 7.909-23.983.552-1.476 1.288-2.952 1.84-4.244 1.655-3.32 4.598-6.272 6.989-9.04 2.576-3.136 5.519-7.01 8.094-10.331 4.599-6.273 28.511-38.928 32.374-44.647 2.943-4.428 5.886-9.04 8.278-13.837m-6.807-68.077c-2.391-.369-4.782-1.476-6.989-2.583-1.84-1.107-3.679-2.214-4.967-3.874-.552-.554-.92-1.292-1.288-2.029-.367-.739-.551-1.66-.551-2.583l-.184-2.399c-.368-2.767-1.288-5.165-2.392-7.748-1.287-2.952-3.311-6.827-4.414-9.778-.552-1.476-1.104-2.952-1.472-4.428-.184-1.107-.368-2.214 0-3.321.184-.553.736-1.107 1.288-1.476.736-.553 1.839-.922 2.759-.922 1.655-.185 3.127-.185 4.782.184 2.76.37 5.519 1.292 8.094 2.583 3.127 1.476 5.886 3.505 8.645 5.535 1.472 1.107 4.599 3.874 6.07 5.165 1.288 1.107 3.863 3.321 5.151 4.613 1.839 1.845 3.679 3.69 4.599 6.272.919 2.583.735 5.35.183 8.118" stroke-width="2.25"/><path d="M70.168 189.328c-2.024 13.283-3.863 27.489-4.415 40.773-.92 21.585-.92 44.462.184 66.047.368 5.535.736 11.623 1.471 16.973.368 3.506 1.656 11.623 1.656 15.129.184 2.767 0 5.719-.736 8.486-.736 3.137-1.84 7.195-2.575 10.332-.368 2.214-.736 4.428-.736 6.826 0 6.642 1.656 13.837 1.472 20.478 0 2.03-.368 4.059-1.104 5.904-1.104 3.136-2.943 6.457-4.415 9.409-.735 1.661-1.471 3.505-1.839 5.166a48.636 48.636 0 00-1.104 7.195c-.184 2.583-.368 6.826-.92 9.225-.183.369-.183.738-.367 1.106-.368-.184-.736-.368-.92-.737-.736-.923-1.288-2.214-1.84-3.321-2.023-5.166-2.207-11.254-3.494-16.604-.184-.554-.368-1.292-.736-1.845-.184-.185-.552 0-.736 0-.368.184-.736.184-1.288.184-.551-.369-.92-.922-1.287-1.66-.736-1.476-1.288-3.321-1.656-4.982-.735-3.505-.735-7.01-.367-10.516.551-3.689 1.655-7.379 2.759-10.885.735-2.029 2.575-6.641 2.943-8.671 0-.369.184-.738.184-1.291-1.84-.553-2.208-.553-2.392-.553h-1.103s-.184 0-.184-.185c0-.369.184-.922.184-1.291.92-2.768 3.31-8.118 4.414-10.701 1.472-3.505 2.944-7.195 3.863-11.069.92-3.137 1.472-6.458 2.024-9.594 2.39-16.789-.368-40.034-1.288-57.192l-.368-7.749c-.368-9.962-1.104-46.86-1.288-56.085 0-7.564.184-15.128 1.656-22.508 1.655-8.117 4.782-15.866 9.013-22.877 4.047-6.641 9.014-12.729 14.9-17.711 6.07-4.981 13.244-8.855 20.969-10.7 6.438-1.661 13.244-1.845 19.866-1.661 35.685 1.845 153.225 4.797 190.566 5.351 7.358 0 15.635-.185 22.809-.554 5.518-.369 11.588-.738 16.923-1.476 7.725-.922 23.177-3.874 30.902-5.165 9.749-1.661 19.682-2.583 29.615-2.214 10.117.184 24.649 1.845 34.765 2.767l2.208.184 1.287.185h2.943c2.576 0 5.151 0 7.726-.553a63.404 63.404 0 008.461-2.214c15.268-4.797 38.445-14.206 53.528-19.556 5.335-1.845 13.244-4.244 18.211-6.827 4.23-2.213 8.093-5.165 11.772-8.117" stroke-width="2.25"/></g></svg>