<svg width="1024" height="510" fill="none" xmlns="http://www.w3.org/2000/svg"><g opacity=".2" clip-path="url(#clip0_431_1672)" stroke="#F1F6FF" stroke-linecap="round" stroke-linejoin="round"><path d="M924.12 52.493H50.244v11.639H924.12v-11.64zM341 422H50v11h291v-11zM635.547 64.238h-11.39v369.234h11.39V64.238zm288.554 0h-11.39v369.234h11.39V64.238z" stroke-width="1.898" stroke-miterlimit="10"/><path d="M62.238 64.238h-12.34v369.234h12.34V64.238zm289.84 0h-11.39v369.234h11.39V64.238zM924 422H636v11h288v-11z" stroke-width="1.898" stroke-miterlimit="10"/><path d="M341 433l283 1" stroke-width="1.25" stroke-dasharray="1.66 2.49"/><path d="M624 324.925H492.231v11.659H624v-11.659zm0 29.855H492.231v11.659H624V354.78zm0-59.71H492.231v11.659H624V295.07zm0 89.565H492.231v11.659H624v-11.659zm-142.368-59.71H352v11.659h129.632v-11.659zm0 29.855H352v11.659h129.632V354.78zm0-59.71H352v11.659h129.632V295.07zM624 265H492v12h132v-12zm-142 0H352v12h130v-12zm142-30H492v12h132v-12zm-142 0H352v12h130v-12zm142-32H492v12h132v-12zm-142 0H352v12h130v-12zm142-34H492v12h132v-12zm-143 0H352v12h129v-12zm143-34H492v12h132v-12zm-143 0H352v12h129v-12zm155-33H492v12h144v-12zm-155 0H341v12h140v-12zm.632 282.635H352v11.659h129.632v-11.659z" stroke-width="1.042" stroke-miterlimit="10"/><path d="M492.428 102h-11v310h11V102z" stroke-width="1.042" stroke-miterlimit="10"/></g><g opacity=".2" stroke="#F1F6FF" stroke-miterlimit="10" stroke-linecap="round" stroke-linejoin="round"><path d="M787.297 189.162l-7.045 7.046m-9.247-2.766l7.045-7.044m-7.716 13.721l17.635-17.634" stroke-width="1.424"/><path d="M817.507 109.795h-76.712V272.81h76.712V109.795z" stroke-width="2.136"/><path d="M822.302 105H736v172.603h86.302V105z" stroke-width="2.136"/></g><g opacity=".2" stroke="#F1F6FF" stroke-miterlimit="10" stroke-linecap="round" stroke-linejoin="round"><path d="M188.297 189.162l-7.045 7.046m-9.247-2.766l7.045-7.044m-7.716 13.721l17.635-17.634" stroke-width="1.424"/><path d="M218.507 109.795h-76.712V272.81h76.712V109.795z" stroke-width="2.136"/><path d="M223.302 105H137v172.603h86.302V105z" stroke-width="2.136"/></g><defs><clipPath id="clip0_431_1672"><path fill="#fff" transform="translate(48 50)" d="M0 0h878v385.371H0z"/></clipPath></defs></svg>