<svg width="1024" height="510" fill="none" xmlns="http://www.w3.org/2000/svg"><g opacity=".2" stroke="#F1F6FF" stroke-miterlimit="10" stroke-linecap="round" stroke-linejoin="round"><path d="M921.12 52.493H47.244v11.639H921.12v-11.64zM316.717 421.852H47.244v11.638h269.473v-11.638zm-.249-357.614h-11.39v39.866h11.39V64.238zm304.69 0h-12.34v39.866h12.34V64.238z" stroke-width="1.898"/><path d="M632.547 64.238h-11.39v369.234h11.39V64.238zm288.554 0h-11.39v369.234h11.39V64.238zm-861.863 0h-12.34v369.234h12.34V64.238zm245.84 0h-11.39v369.234h11.39V64.238z" stroke-width="1.898"/><path d="M920.756 421.852H609.099v11.638h311.657v-11.638z" stroke-width="1.898"/><path d="M621.158 104.104h-12.34v329.368h12.34V104.104zm-304.69 0h-11.39v329.368h11.39V104.104z" stroke-width="1.898"/><path d="M608.818 433.472v-11.39h-292.35v11.39h292.35zM468.339 104.104h-11.391v314.181h11.391V104.104z" stroke-width="1.898"/><path d="M316.717 427.059v6.413H47.244V52.245H921.12v381.226H609.1V104.512H316.717v322.547z" stroke-width="2.61"/><path d="M397.028 188.266l-7.045 7.045m-9.248-2.765l7.045-7.045m-7.716 13.121l17.635-17.634m151.199 7.278l-7.044 7.045m-9.249-2.765l7.045-7.045m-7.716 13.121l17.635-17.634m-319.463 7.278l-7.044 7.045m-9.25-2.765l7.045-7.045m-7.715 13.121l17.635-17.634m-91.767 7.278l-7.045 7.045m-9.247-2.765l7.045-7.045m-7.716 13.722l17.635-17.634" stroke-width="1.424"/><path d="M260.316 108.899h-76.712v163.015h76.712V108.899z" stroke-width="2.136"/><path d="M265.112 104.104H178.81v172.603h86.302V104.104zm-95.892 4.795H92.508v163.015h76.712V108.899z" stroke-width="2.136"/><path d="M174.016 104.104H87.714v172.603h86.302V104.104z" stroke-width="2.136"/><path d="M736.999 188.266l-7.045 7.045m-9.248-2.765l7.045-7.045m-7.715 13.722l17.635-17.634" stroke-width="1.424"/><path d="M858.305 108.899h-76.712v163.015h76.712V108.899z" stroke-width="2.136"/><path d="M863.1 104.104h-86.302v172.603H863.1V104.104zm-95.891 4.795h-76.713v163.015h76.713V108.899z" stroke-width="2.136"/><path d="M772.004 104.104h-86.302v172.603h86.302V104.104z" stroke-width="2.136"/><path d="M828.095 188.266l-7.045 7.045m-9.247-2.765l7.045-7.045m-7.716 13.722l17.635-17.634" stroke-width="1.424"/><path d="M858.305 108.899h-76.712v163.015h76.712V108.899z" stroke-width="2.136"/><path d="M863.1 104.104h-86.302v172.603H863.1V104.104z" stroke-width="2.136"/></g></svg>