<svg width="1279" height="677" fill="none" xmlns="http://www.w3.org/2000/svg"><g opacity=".1" stroke="#F1F6FF" stroke-miterlimit="10" stroke-linecap="round" stroke-linejoin="round"><path d="M1019.52 690.839V26.161M427.667 692.293V208.802m16.468 483.491V192.331m8.718-2.423l566.667 490.758M444.135 204.442l561.345 486.397m31 0V26.161m566.18 163.747l-566.18 490.758m574.9-476.224l-561.34 486.397M431.542 178.766L6.78 684.541v25.677c509.036-2.907 1533.4-2.907 2042.44 0v-25.677l-424.76-505.775" stroke-width="2"/><path d="M6.78 710.702l433.964-517.403-9.202-14.533L1027.76 6.782V23.74L440.744 193.3" stroke-width="2"/><path d="M2049.22 710.702l-433.96-517.403 9.2-14.533-596.7-171.984V23.74l587.5 169.56" stroke-width="2"/><path d="M431.542 178.766L6.78 684.541v25.677c509.036-2.907 1533.4-2.907 2042.44 0v-25.677l-424.76-505.775-596.7-171.984-596.218 171.984z" stroke-width="2.75"/></g></svg>